<?xml version="1.0" standalone="no"?><!DOCTYPE svg PUBLIC "-//W3C//DTD SVG 1.1//EN" "http://www.w3.org/Graphics/SVG/1.1/DTD/svg11.dtd"><svg t="1579420017671" class="icon" viewBox="0 0 1024 1024" version="1.1" xmlns="http://www.w3.org/2000/svg" p-id="8989" xmlns:xlink="http://www.w3.org/1999/xlink" width="200" height="200"><defs><style type="text/css"></style></defs><path d="M890.88 243.712h-351.8464l-68.8128-106.496c-13.1072-20.48-35.6352-32.768-60.2112-32.768H133.12C93.7984 104.448 61.44 136.8064 61.44 176.128v671.744c0 39.3216 32.3584 71.68 71.68 71.68h757.76c39.3216 0 71.68-32.3584 71.68-71.68V315.392c0-39.3216-32.3584-71.68-71.68-71.68zM901.12 847.872c0 5.7344-4.5056 10.24-10.24 10.24h-757.76c-5.7344 0-10.24-4.5056-10.24-10.24V176.128c0-5.7344 4.5056-10.24 10.24-10.24h276.8896c3.6864 0 6.5536 1.6384 8.6016 4.5056l77.824 120.4224c5.7344 8.6016 15.5648 13.9264 25.8048 13.9264h368.64c5.7344 0 10.24 4.5056 10.24 10.24V847.872z" fill="#707070" p-id="8990"></path><path d="M740.5568 421.888H283.8528c-16.7936 0-30.72 13.9264-30.72 30.72s13.9264 30.72 30.72 30.72h456.704c16.7936 0 30.72-13.9264 30.72-30.72s-13.9264-30.72-30.72-30.72zM740.5568 610.304H283.8528c-16.7936 0-30.72 13.9264-30.72 30.72s13.9264 30.72 30.72 30.72h456.704c16.7936 0 30.72-13.9264 30.72-30.72s-13.9264-30.72-30.72-30.72z" fill="#707070" p-id="8991"></path></svg>