<?xml version="1.0" standalone="no"?><!DOCTYPE svg PUBLIC "-//W3C//DTD SVG 1.1//EN" "http://www.w3.org/Graphics/SVG/1.1/DTD/svg11.dtd"><svg t="1579420485907" class="icon" viewBox="0 0 1024 1024" version="1.1" xmlns="http://www.w3.org/2000/svg" p-id="1984" xmlns:xlink="http://www.w3.org/1999/xlink" width="200" height="200"><defs><style type="text/css"></style></defs><path d="M512 800.427L290.859 892.8a42.667 42.667 0 0 1-58.966-42.965l20.054-236.928L95.659 433.195a42.667 42.667 0 0 1 22.528-69.547l233.088-54.23 124.288-203.86a42.667 42.667 0 0 1 72.874 0l124.246 203.86 233.088 54.187a42.667 42.667 0 0 1 22.528 69.547L772.01 612.907l20.096 236.928A42.667 42.667 0 0 1 733.14 892.8L512 800.47z m-189.141-13.44L512 707.968l189.141 79.019-17.194-202.838 133.461-153.472-198.912-46.293L512 209.749 405.504 384.384l-198.912 46.293L340.053 584.15 322.86 786.987z" p-id="1985" fill="#f4ea29"></path></svg>